<?xml version="1.0" encoding="UTF-8" standalone="no"?>
<!-- Created with Inkscape (http://www.inkscape.org/) -->

<svg
   version="1.1"
   id="svg1"
   width="116.60976"
   height="116.60976"
   viewBox="0 0 116.60976 116.60976"
   sodipodi:docname="action-this-day.svg"
   inkscape:export-filename="../../../../Downloads/logo.png"
   inkscape:export-xdpi="421.50848"
   inkscape:export-ydpi="421.50848"
   inkscape:version="1.3 (0e150ed, 2023-07-21)"
   xmlns:inkscape="http://www.inkscape.org/namespaces/inkscape"
   xmlns:sodipodi="http://sodipodi.sourceforge.net/DTD/sodipodi-0.dtd"
   xmlns="http://www.w3.org/2000/svg"
   xmlns:svg="http://www.w3.org/2000/svg">
  <defs
     id="defs1" />
  <sodipodi:namedview
     id="namedview1"
     pagecolor="#ffffff"
     bordercolor="#000000"
     borderopacity="0.25"
     inkscape:showpageshadow="2"
     inkscape:pageopacity="0.0"
     inkscape:pagecheckerboard="0"
     inkscape:deskcolor="#d1d1d1"
     inkscape:zoom="10.021943"
     inkscape:cx="65.45637"
     inkscape:cy="65.256807"
     inkscape:window-width="1800"
     inkscape:window-height="927"
     inkscape:window-x="51"
     inkscape:window-y="25"
     inkscape:window-maximized="0"
     inkscape:current-layer="g1" />
  <g
     inkscape:groupmode="layer"
     inkscape:label="Image"
     id="g1"
     transform="translate(-5.7070847,-5.5528412)">
    <rect
       style="display:none;opacity:1;fill:#24273a;fill-opacity:1;stroke:none;stroke-width:0.23;stroke-linecap:round;stroke-linejoin:round;stroke-opacity:1"
       id="rect205"
       width="129.71536"
       height="128.11887"
       x="-0.39912421"
       y="0.79824841"
       ry="12.634474" />
    <ellipse
       style="display:none;opacity:0.9;fill:#7287fd;fill-opacity:1;stroke:none;stroke-width:0.292416;stroke-linecap:round;stroke-linejoin:round;stroke-opacity:1"
       id="path103"
       cx="59.823418"
       cy="-64.544891"
       rx="58.510948"
       ry="62.411678"
       transform="scale(1,-1)"
       sodipodi:insensitive="true" />
    <circle
       style="display:inline;fill:#7287fd;fill-opacity:1;stroke-width:0.296218;stroke-linecap:round;stroke-linejoin:round"
       id="path1"
       cx="64.011963"
       cy="63.857719"
       r="58.304878" />
    <g
       id="g2"
       style="display:inline"
       inkscape:label="brain"
       transform="matrix(1.2713728,0,0,1.2713728,-19.356492,-18.489724)">
      <path
         style="display:inline;fill:#7f849c;fill-opacity:1;stroke-width:1.03038"
         d="m 50.543965,95.508715 c -1.832764,-1.076458 -3.88419,-1.941556 -5.580153,-3.150249 -1.99583,-3.83543 -3.589883,-8.071997 -6.910686,-10.979203 -3.223176,-5.985679 -3.805378,-13.0333 -3.493235,-19.721929 0.05324,-3.230994 0.07169,-6.462382 0.09639,-9.693677 3.290126,-3.257533 6.670778,-6.510383 8.994957,-10.560427 4.008432,-4.290032 9.74042,-6.645984 15.389334,-7.87589 2.37372,-0.616121 5.094116,-0.299548 6.576006,1.809583 0.95469,0.150607 2.134956,-0.745634 3.173757,-0.98537 1.955246,-0.738022 3.910492,-1.476046 5.865737,-2.214068 3.331595,2.594797 7.188162,4.341586 10.90334,6.286963 3.048146,1.560153 4.43086,4.72765 6.48719,7.254086 1.810488,2.264538 3.959345,4.218676 5.983386,6.285123 -0.262322,6.125089 0.276953,12.24672 1.434475,18.263162 0.206273,1.600115 -2.993574,1.694172 -2.638867,3.841795 -0.167817,3.035534 -0.895259,6.246562 -3.30553,8.339508 -2.60021,2.994184 -3.920984,6.761871 -5.356005,10.389874 -4.678106,2.11424 -9.356212,4.228479 -14.034318,6.34272 -2.786277,-1.051702 -5.572554,-2.103404 -8.358831,-3.155106 -1.363096,1.652759 -3.301791,2.870001 -5.541214,2.576641 -3.420037,-0.158284 -6.695385,-1.463204 -9.685733,-3.053536 z"
         id="path104"
         inkscape:label="brain-fill" />
      <path
         style="display:inline;fill:#f5e0dc;fill-opacity:1"
         d="M 49.780708,93.86965 C 48.001982,92.824931 46.011042,91.98534 44.365083,90.812285 42.4281,87.089941 40.881047,82.978288 37.658156,80.156799 34.530014,74.347606 33.964978,67.507781 34.267918,61.016364 c 0.05167,-3.13573 -1.004553,-6.470287 0.09355,-9.407863 1.571346,-4.203563 6.474093,-6.318427 8.729744,-10.249057 3.890245,-4.163542 9.453228,-6.45003 14.935586,-7.643672 2.303731,-0.597955 4.943918,-0.290716 6.382115,1.756228 0.926541,0.146166 2.072007,-0.723649 3.08018,-0.956317 0,0 3.765108,-2.112105 5.692788,-2.148787 1.92768,-0.03668 6.976222,4.213576 10.581859,6.101594 2.958273,1.514153 4.300218,4.588257 6.295918,7.040202 1.757106,2.197769 5.197328,4.203398 5.806968,6.099809 0.60964,1.896411 0.268787,11.88563 1.39218,17.72468 0.200191,1.552936 -2.90531,1.64422 -2.561061,3.728521 -0.162869,2.946033 -0.868863,6.062385 -3.208068,8.093621 -2.523544,2.905902 -4.50173,8.323016 -5.198085,10.083533 -0.696355,1.760517 -9.686177,6.03066 -13.620522,6.155707 -3.934345,0.125047 -8.112374,-3.062079 -8.112374,-3.062079 -1.322905,1.604028 -3.204439,2.78538 -5.377833,2.50067 -3.319199,-0.153617 -6.497974,-1.420062 -9.400153,-2.963504 z"
         id="path101"
         inkscape:label="brain-fill"
         sodipodi:nodetypes="scccacccczcczccczzccss"
         sodipodi:insensitive="true" />
      <path
         style="display:inline;opacity:0.299603;fill:#f38ba8;fill-opacity:1"
         d="M 49.638391,93.949871 C 47.705386,92.547321 44.7461,92.138989 43.686569,89.836716 41.995014,86.435687 40.436054,82.793295 37.515839,80.23702 33.503674,72.953312 33.999762,64.415539 34.182764,56.392763 c -0.65778,-3.409958 0.571164,-5.99956 3.315218,-7.994323 2.236677,-2.20155 4.070624,-4.771395 5.820471,-7.343632 4.349044,-4.310801 10.357102,-6.646896 16.332874,-7.524518 2.997813,-0.709704 4.569277,3.571442 7.311644,1.179502 2.043427,-0.70106 4.063541,-3.048922 6.076593,-2.262675 4.390879,1.714966 8.197045,4.528445 12.090379,7.103447 3.017286,2.86483 4.794656,6.798539 7.984225,9.534149 3.615549,1.976627 2.324689,5.875864 2.642549,9.284941 0.08875,3.885883 1.715071,7.543637 1.293084,11.564331 -0.442031,4.21168 -1.886442,6.599925 -4.237232,9.594289 -3.019105,3.122386 -4.972997,7.052469 -6.40313,11.129237 -0.447355,1.2676 -2.181797,1.310653 -3.232021,2.004678 0,0 -6.755404,4.688854 -10.648665,4.812595 -2.888888,0.09182 -8.112374,-3.062079 -8.112374,-3.062079 -1.636689,2.265931 -4.597718,3.01962 -7.229174,2.302401 -2.661909,-0.44412 -5.177603,-1.505872 -7.548814,-2.765235 z m 14,-4.865413 V 76.233701 c -1.051084,-2.022111 -5.047227,-4.907242 -3.124346,-6.986805 1.761652,0.814998 3.768639,1.446362 3.12435,-1.120211 V 39.914498 c -1.904469,-1.569823 -4.035158,-5.30532 -6.84747,-3.597894 -1.625767,2.197434 3.927772,5.321344 -0.837325,5.609798 -2.922448,0.468283 -6.476303,-0.672226 -9.002704,0.17287 -2.01383,4.316583 -5.457896,7.720717 -8.688851,11.106314 -1.85006,2.927303 1.701574,4.07926 3.807494,2.54733 3.383557,1.263441 -1.839287,4.233899 -2.931187,5.780677 -2.937206,1.74589 -4.063664,4.343111 -2.040459,7.332775 1.069541,2.142832 5.104824,0.747099 3.304296,4.038658 l -1.097133,5.485662 c 3.540638,0.451545 3.655553,-4.181165 5.92446,-5.781792 3.029174,-1.941636 2.38135,-5.880562 4.317551,-8.270796 2.033735,-1.820184 2.60627,0.466847 1.716586,2.03081 l -1.023136,4.076497 c 0.934074,1.66761 4.35531,6.973184 0.330307,5.998073 -1.855917,-2.242659 -3.429594,-2.294751 -4.252666,0.589394 -1.370514,3.483719 -1.85664,8.735391 0.08089,11.632574 3.798352,1.799609 9.386026,4.607129 11.349123,5.493762 1.963097,0.886633 6.790337,-0.823159 5.89022,-5.074752 z m 13.795674,2.727148 c 3.746477,-1.624213 7.594823,-4.105289 8.92651,-8.163332 -0.670527,-3.372316 -2.042343,-6.717551 -4.409328,-9.290469 -1.048682,1.673457 -5.786007,3.992714 -4.252389,0.197225 2.607627,-2.037454 2.105552,-4.665998 1.441748,-7.566652 -0.780458,-2.763168 2.483316,-2.889474 2.613853,-0.226605 0.480746,3.741066 4.062824,5.654645 5.566334,8.897664 0.08237,2.755052 3.469479,3.646951 3.752052,0.516341 -0.141761,-2.578019 -3.881601,-5.511754 0.705683,-6.324407 2.768625,-1.267727 3.928345,-6.264933 0.337386,-7.480314 -1.651864,-1.809801 -6.052497,-3.799776 -5.026061,-6.376246 2.171319,-0.532153 7.397767,3.035272 5.658828,-1.663683 -0.675071,-4.037457 -5.547709,-4.497997 -6.809925,-7.973222 -1.463881,-1.556767 -0.697488,-5.86666 -3.642625,-5.471634 l -9.324407,1.250666 c -2.818737,0.378072 3.390229,-3.297395 2.897136,-4.093273 -0.896765,-1.447428 -2.728498,-2.738701 -4.422187,-2.559437 -2.298666,0.243296 -5.141616,4.653098 -5.141616,4.653098 0,0 -0.779587,26.510153 0,30.00371 0.29886,1.339278 3.464053,-0.188065 3.970472,1.087287 0.935898,2.356941 -3.958854,4.416334 -3.960504,6.495699 -0.0016,2.079365 -1.126081,8.65211 -0.01,12.47619 1.116081,3.82408 5.614566,5.214626 9.010871,2.507895 0.692082,-0.329775 1.387533,-0.659572 2.118169,-0.896501 z"
         id="path100"
         inkscape:label="path100"
         sodipodi:nodetypes="ccccccccscccscccacccccccccccccccccccccccczccccccccccccccsssacsazzcc"
         sodipodi:insensitive="true" />
      <path
         id="path24"
         style="display:inline;opacity:0.9;fill:#e64553;fill-opacity:1"
         d="m 59.121242,33.714979 c -2.761662,0.482035 -4.601805,1.009673 -7.190721,1.996592 -2.259407,1.497089 -5.348471,1.920384 -7.024328,4.31072 -2.320595,2.697735 -3.704819,6.074598 -6.704962,8.18879 -3.962595,1.833466 -2.555542,6.388171 -3.2196,9.870381 -0.349074,3.754889 -0.863765,7.217675 -0.673803,11.055549 2.302864,7.188869 0.751382,2.807511 2.448195,9.219826 1.208662,2.768808 4.817174,4.074449 5.39654,7.624069 0.523412,3.722487 2.774115,5.850835 6.304255,6.806509 3.146412,1.303604 6.215607,2.927135 9.397187,4.059459 3.129224,0.485372 5.167309,-2.580334 7.689359,-3.242665 2.376321,0.702216 4.342775,4.166814 6.923291,2.897692 3.245686,-1.430201 6.473381,-2.902167 9.745788,-4.270953 5.46552,-2.54526 4.35877,-4.443422 5.668323,-7.071271 1.556728,-3.609118 5.192347,-5.971802 5.957221,-9.973727 0.812507,-3.264435 2.026417,-6.395273 3.022923,-9.591008 0.04478,-3.202632 -3.300885,-5.797084 -1.935281,-9.320059 1.421063,-2.631912 -0.122,-5.487832 -2.418121,-6.993355 -2.69661,-2.278974 -4.780981,-5.193335 -6.717751,-8.089677 -2.574331,-2.764245 -6.435743,-3.627225 -9.560365,-5.60226 -1.622199,-1.394388 -3.317603,-3.797659 -5.740044,-2.188803 -6.020883,4.365727 -4.610667,4.675278 -8.501548,1.475264 -0.883121,-0.787771 -1.522088,-1.095501 -2.866558,-1.161073 z m -0.861328,1.66619 c 3.587341,-1.005841 5.20951,3.722577 4.622533,6.501307 0.183273,9.801573 0.484925,19.601222 0.554987,29.404691 -1.649578,0.240891 -3.710371,-3.053094 -4.322596,-2.544146 2.041661,2.98914 5.009571,6.125559 4.297054,10.065377 -0.224673,4.673193 -0.332701,9.352478 -0.6629,14.020225 -2.409085,2.34702 -6.43643,1.347541 -8.88447,-0.44649 -2.825148,-0.870764 -6.076049,-1.200164 -7.843635,-3.970274 -2.764181,-2.931976 -2.655939,-7.215588 -1.193735,-10.722644 0.918894,-3.061296 1.579532,-4.521944 6.324557,-1.995187 2.041453,1.163495 -1.236663,-2.735656 -1.840132,-4.561814 -0.332742,-1.32313 0.667995,-5.910056 0.364685,-6.418269 -0.621928,2.781558 -1.708762,5.442597 -3.588413,7.641727 -1.550131,2.044151 -3.2703,3.998144 -4.392825,6.326306 -3.736038,1.127653 -3.184339,-5.079398 -1.045039,-6.603322 -2.295129,-0.258227 -4.596229,-2.034177 -4.932388,-4.777245 -0.516792,-3.752341 0.896896,-6.238504 3.852124,-8.139181 1.567934,-0.938029 3.608675,-2.251027 3.350299,-2.418584 -0.171275,-0.111072 -2.216808,1.025571 -1.627495,0.206172 0.237406,-0.330886 1.146948,-0.959574 0.946274,-0.922282 -0.454543,0.08447 -5.265203,2.543615 -5.46743,1.378196 0,0 -0.900805,-2.973771 0,-5.374424 0.525991,-1.401772 3.311758,-2.445961 5.183743,-4.289323 1.333949,-1.313552 1.832512,-3.604271 2.402427,-4.129109 2.049469,-2.036727 4.706568,-4.42273 7.831617,-3.659769 1.746997,0.121384 6.911539,2.417814 3.667846,-0.443689 -2.464368,-2.260531 -0.280789,-3.272155 2.402912,-4.128249 z m 12.864971,0.511465 c 2.887058,-0.881144 7.852543,0.905969 2.751474,4.68284 -2.729374,2.159135 1.712115,0.286026 3.615711,-0.392169 6.938219,-1.304181 6.717371,1.355584 8.141495,4.256993 2.265757,3.912925 3.592435,4.023484 5.56191,6.179395 1.707854,2.071479 2.017737,4.502287 2.069305,6.638159 0.05157,2.135871 -4.719304,-1.473963 -5.593725,-0.398928 -0.87442,1.075036 3.745564,3.795109 5.922267,5.93552 1.300423,1.488502 1.36449,5.591582 -1.240898,7.393874 -2.616174,2.796541 0.443557,7.384477 -3.201272,8.435682 -3.331832,-1.567931 -4.898786,-5.655867 -6.827184,-8.655112 -0.84812,-1.49164 -2.069485,-4.997656 -2.666748,-5.273201 0.255202,4.219425 0.298693,9.030863 -2.93909,12.235181 -0.0068,0.588844 3.047173,-2.380122 4.033432,-3.243635 2.5156,-0.576825 3.935733,3.464742 4.701574,5.503182 1.015996,3.620495 0.364949,8.091792 -2.98484,10.298231 -3.034219,2.239606 -6.707365,3.4411 -10.248977,4.584822 -3.488642,0.633111 -6.496874,-2.439692 -5.677504,-5.899455 -0.197277,-4.328576 -0.459299,-8.65748 -0.436457,-12.992396 1.092637,-1.945475 4.209883,-5.971767 4.067273,-6.534465 -1.446259,0.78505 -4.785411,5.255894 -4.053641,1.118133 0.0724,-10.336811 0.516367,-20.671984 0.580091,-31.00565 0.457552,-1.671752 2.777504,-2.695937 4.425804,-2.867001 z"
         sodipodi:nodetypes="ccccccccccccccccccccccccccccccccccccccccscscssccccccccczzcccccccccccccccc"
         sodipodi:insensitive="true" />
    </g>
  </g>
</svg>
